<svg width="775" height="461" viewBox="0 0 775 461" fill="none" xmlns="http://www.w3.org/2000/svg">
<path d="M139.178 215.767L121.551 218.705L119.266 203.58C118.686 200.098 117.997 197.886 117.199 196.943C115.313 194.767 110.09 193.533 101.53 193.243C99.4988 193.171 97.2501 193.134 94.7837 193.134C84.9182 193.134 78.4621 193.678 75.4154 194.767C72.0786 195.347 69.6485 198.647 68.1251 204.668C66.6018 210.689 65.8401 218.052 65.8401 226.757L65.9489 245.581C65.9489 248.193 65.9489 251.783 65.9489 256.353C65.9489 262.302 65.9489 266.509 65.9489 268.975C65.9489 271.369 66.2753 274.126 66.9282 277.245C67.5811 280.292 68.3065 282.214 69.1044 283.012C69.9749 283.737 71.5708 284.608 73.8921 285.623C76.2134 286.639 78.6798 287.183 81.2912 287.256C83.9752 287.328 87.8198 287.364 92.8251 287.364C96.7423 287.364 100.115 287.219 102.945 286.929C105.846 286.639 108.276 286.313 110.235 285.95C112.266 285.515 113.898 284.825 115.131 283.882C116.437 282.867 117.416 281.96 118.069 281.162C118.795 280.364 119.339 279.131 119.701 277.463C120.064 275.722 120.282 274.235 120.354 273.001C120.499 271.768 120.644 269.918 120.789 267.452C120.935 264.913 121.116 262.773 121.334 261.032L139.178 264.079C138.743 269.737 138.235 274.271 137.655 277.68C137.147 281.09 136.241 284.39 134.935 287.582C133.702 290.774 132.106 293.204 130.147 294.872C128.261 296.468 125.613 297.919 122.204 299.225C118.867 300.53 114.95 301.365 110.452 301.727C106.027 302.163 100.478 302.38 93.8044 302.38C89.0168 302.38 84.7006 302.235 80.856 301.945C77.0839 301.655 73.6382 301.074 70.519 300.204C67.3997 299.261 64.6795 298.39 62.3582 297.593C60.0369 296.722 57.9695 295.235 56.156 293.131C54.415 291.028 52.9279 289.214 51.6947 287.691C50.5341 286.167 49.5548 283.701 48.7568 280.292C47.9589 276.882 47.3423 273.981 46.9071 271.587C46.4718 269.193 46.1454 265.566 45.9278 260.706C45.7101 255.773 45.5651 251.602 45.4925 248.193C45.4925 244.783 45.4925 239.85 45.4925 233.394C45.4925 227.591 45.6013 222.586 45.8189 218.378C46.0366 214.099 46.4718 210.036 47.1247 206.192C47.7775 202.274 48.6118 199.046 49.6273 196.507C50.7154 193.896 52.13 191.466 53.8709 189.217C55.6844 186.968 57.7156 185.191 59.9643 183.885C62.2856 182.58 65.1147 181.455 68.4516 180.512C71.861 179.569 75.5605 178.916 79.5502 178.554C83.6125 178.191 88.3276 178.01 93.6956 178.01C100.587 178.01 106.354 178.372 110.997 179.098C115.712 179.751 119.883 180.875 123.51 182.471C127.137 184.067 130.002 186.352 132.106 189.326C134.209 192.228 135.842 195.818 137.002 200.098C138.163 204.306 138.888 209.528 139.178 215.767ZM212.952 287.364C223.253 287.147 230.398 286.385 234.388 285.079C238.45 283.774 240.481 281.198 240.481 277.354C241.279 266.98 241.678 254.975 241.678 241.337C241.678 236.84 241.497 230.42 241.134 222.078C240.771 213.663 240.59 207.425 240.59 203.363C240.59 202.129 240.372 201.005 239.937 199.989C239.574 198.974 238.922 198.14 237.978 197.487C237.108 196.761 236.201 196.145 235.258 195.637C234.388 195.129 233.118 194.73 231.45 194.44C229.854 194.15 228.476 193.896 227.315 193.678C226.227 193.461 224.631 193.316 222.527 193.243C220.496 193.171 218.9 193.134 217.74 193.134C216.652 193.134 215.019 193.134 212.843 193.134C210.667 193.134 208.999 193.134 207.838 193.134C206.75 193.134 205.154 193.171 203.05 193.243C201.019 193.316 199.423 193.461 198.263 193.678C197.175 193.896 195.796 194.15 194.128 194.44C192.532 194.73 191.262 195.129 190.319 195.637C189.449 196.145 188.542 196.761 187.599 197.487C186.729 198.14 186.076 198.974 185.641 199.989C185.278 201.005 185.097 202.129 185.097 203.363C185.097 207.425 184.915 213.663 184.552 222.078C184.19 230.42 184.008 236.84 184.008 241.337C184.008 254.975 184.407 266.98 185.205 277.354C185.205 281.198 187.309 283.846 191.516 285.297C195.796 286.675 202.941 287.364 212.952 287.364ZM212.734 302.38C204.682 302.38 197.972 302.054 192.604 301.401C187.236 300.748 182.594 299.334 178.677 297.157C174.832 294.909 171.894 292.551 169.863 290.085C167.832 287.546 166.236 283.592 165.075 278.224C163.915 272.784 163.189 267.416 162.899 262.12C162.682 256.825 162.573 249.462 162.573 240.032C162.573 232.995 162.645 227.12 162.79 222.404C163.008 217.689 163.443 213.083 164.096 208.585C164.749 204.015 165.547 200.352 166.49 197.596C167.505 194.767 168.92 192.119 170.734 189.652C172.62 187.113 174.723 185.191 177.045 183.885C179.366 182.58 182.304 181.455 185.858 180.512C189.485 179.497 193.402 178.844 197.61 178.554C201.89 178.191 206.967 178.01 212.843 178.01C218.719 178.01 223.761 178.191 227.968 178.554C232.248 178.844 236.165 179.497 239.719 180.512C243.346 181.455 246.321 182.58 248.642 183.885C250.963 185.191 253.031 187.113 254.844 189.652C256.73 192.119 258.145 194.767 259.088 197.596C260.103 200.352 260.938 204.015 261.59 208.585C262.243 213.083 262.642 217.689 262.787 222.404C263.005 227.12 263.114 232.995 263.114 240.032C263.114 249.462 262.969 256.825 262.678 262.12C262.461 267.416 261.772 272.784 260.611 278.224C259.45 283.592 257.818 287.546 255.715 290.085C253.683 292.624 250.709 294.981 246.792 297.157C242.948 299.334 238.341 300.748 232.973 301.401C227.605 302.054 220.859 302.38 212.734 302.38ZM388.137 300.748H368.551L366.484 285.732C362.059 296.831 350.489 302.38 331.773 302.38C326.768 302.38 322.27 302.054 318.281 301.401C314.364 300.748 310.954 299.624 308.053 298.028C305.223 296.432 302.793 294.8 300.762 293.131C298.731 291.39 297.026 288.924 295.648 285.732C294.342 282.468 293.291 279.53 292.493 276.919C291.767 274.235 291.223 270.535 290.86 265.82C290.498 261.105 290.28 257.006 290.208 253.524C290.135 249.97 290.099 245.182 290.099 239.161C290.099 233.285 290.171 228.208 290.316 223.928C290.534 219.648 290.897 215.404 291.405 211.197C291.985 206.99 292.71 203.471 293.581 200.642C294.524 197.741 295.757 194.948 297.28 192.264C298.804 189.58 300.617 187.44 302.721 185.844C304.897 184.176 307.472 182.725 310.446 181.492C313.421 180.186 316.83 179.279 320.675 178.771C324.519 178.264 328.872 178.01 333.732 178.01C343.09 178.01 350.344 179.279 355.494 181.818C360.717 184.284 364.453 188.238 366.701 193.678V135.465L388.137 133.724V300.748ZM366.701 273.001V209.565C366.701 203.254 364.743 198.938 360.826 196.616C356.908 194.222 349.546 193.026 338.737 193.026C330.322 193.026 324.084 193.642 320.022 194.875C316.685 195.891 314.436 198.901 313.275 203.907C312.115 208.839 311.534 215.513 311.534 223.928C311.534 236.187 311.752 253.343 312.187 275.395C312.55 280.183 314.472 283.411 317.954 285.079C321.509 286.675 328.436 287.473 338.737 287.473C348.893 287.473 355.965 286.458 359.955 284.426C364.017 282.395 366.266 278.587 366.701 273.001ZM513.596 239.379C504.891 240.249 499.487 240.757 497.383 240.902H438.081C438.154 251.421 438.444 262.954 438.952 275.504C439.314 280.364 441.382 283.592 445.154 285.188C448.999 286.711 456.434 287.473 467.46 287.473C471.595 287.473 475.149 287.328 478.124 287.038C481.098 286.675 483.492 286.095 485.305 285.297C487.191 284.426 488.642 283.629 489.657 282.903C490.746 282.105 491.543 280.908 492.051 279.312C492.559 277.644 492.885 276.266 493.031 275.178C493.176 274.017 493.321 272.312 493.466 270.063C493.611 267.742 493.792 265.856 494.01 264.405L510.658 267.452C510.513 272.53 510.15 276.846 509.57 280.4C508.989 283.882 508.01 286.965 506.632 289.649C505.254 292.333 503.621 294.473 501.735 296.069C499.849 297.593 497.31 298.862 494.119 299.878C490.927 300.893 487.409 301.546 483.564 301.836C479.719 302.199 474.968 302.38 469.31 302.38C462.056 302.38 455.745 301.945 450.377 301.074C445.009 300.277 440.402 299.261 436.558 298.028C432.786 296.795 429.667 294.8 427.2 292.043C424.734 289.214 422.775 286.53 421.324 283.991C419.946 281.452 418.931 277.716 418.278 272.784C417.625 267.851 417.19 263.39 416.972 259.4C416.827 255.338 416.754 249.752 416.754 242.643C416.754 232.633 416.863 224.835 417.081 219.249C417.371 213.663 418.096 208.078 419.257 202.492C420.418 196.834 421.977 192.735 423.936 190.196C425.894 187.658 428.796 185.3 432.641 183.124C436.485 180.948 441.019 179.569 446.242 178.989C451.465 178.336 458.102 178.01 466.154 178.01C471.74 178.01 476.564 178.191 480.626 178.554C484.688 178.844 488.424 179.497 491.834 180.512C495.243 181.528 498.036 182.689 500.212 183.994C502.461 185.3 504.419 187.222 506.088 189.761C507.829 192.3 509.135 194.948 510.005 197.704C510.948 200.388 511.71 203.979 512.29 208.477C512.87 212.974 513.233 217.544 513.378 222.187C513.523 226.757 513.596 232.488 513.596 239.379ZM438.19 229.477H492.16C492.015 220.192 491.652 211.705 491.072 204.015C490.782 199.59 488.859 196.653 485.305 195.202C481.823 193.678 475.403 192.917 466.046 192.917C455.672 192.917 449.107 193.497 446.351 194.658C445.118 195.02 444.03 195.673 443.086 196.616C442.216 197.487 441.491 198.756 440.91 200.425C440.33 202.093 439.858 203.653 439.496 205.104C439.206 206.554 438.952 208.585 438.734 211.197C438.589 213.736 438.48 215.731 438.408 217.181C438.335 218.56 438.263 220.7 438.19 223.601C438.19 226.503 438.19 228.462 438.19 229.477Z" fill="white" style="fill:white;fill:white;fill-opacity:1;"/>
<path d="M647.65 209.238C647.65 234.337 647.324 250.586 646.671 257.985C645.511 272.131 642.428 282.214 637.422 288.235C631.837 294.981 622.261 299.007 608.696 300.313C604.489 300.748 599.665 300.966 594.224 300.966C589.945 300.966 586.354 300.929 583.452 300.857C580.623 300.784 577.323 300.603 573.55 300.313C569.778 299.95 566.623 299.479 564.084 298.898C561.618 298.318 559.042 297.484 556.358 296.396C553.747 295.235 551.643 293.857 550.047 292.261C548.524 290.665 547.255 288.706 546.239 286.385C545.223 283.991 544.716 281.271 544.716 278.224C544.716 274.235 545.042 270.245 545.695 266.255C551.571 265.602 557.338 264.841 562.996 263.97C562.996 266.799 562.996 268.939 562.996 270.39C563.068 271.841 563.25 273.545 563.54 275.504C563.83 277.39 564.193 278.768 564.628 279.639C565.136 280.509 565.897 281.489 566.913 282.577C567.929 283.665 569.125 284.426 570.504 284.862C571.882 285.224 573.659 285.66 575.835 286.167C578.084 286.603 580.551 286.893 583.235 287.038C585.991 287.11 589.292 287.147 593.136 287.147C599.955 287.002 605.251 286.675 609.023 286.167C612.867 285.587 616.023 284.572 618.489 283.121C621.028 281.597 622.733 279.711 623.603 277.463C624.546 275.214 625.235 272.022 625.671 267.887C626.396 251.203 626.904 236.078 627.194 222.513C620.665 234.555 608.878 240.576 591.831 240.576C584.939 240.576 579.063 240.322 574.203 239.814C569.416 239.306 564.954 238.4 560.82 237.094C556.757 235.716 553.457 233.902 550.918 231.653C548.379 229.405 546.203 226.43 544.389 222.731C542.648 219.031 541.415 214.679 540.69 209.674C539.964 204.668 539.602 198.684 539.602 191.72C539.602 184.176 539.928 177.683 540.581 172.243C541.234 166.802 542.358 162.015 543.954 157.88C545.622 153.672 547.69 150.263 550.156 147.652C552.623 145.04 555.814 142.936 559.731 141.341C563.721 139.672 568.146 138.511 573.006 137.859C577.939 137.206 583.851 136.879 590.742 136.879C599.738 136.879 607.209 137.278 613.157 138.076C619.106 138.802 624.256 140.397 628.609 142.864C633.034 145.258 636.443 147.978 638.837 151.025C641.231 154.071 643.117 158.641 644.495 164.735C645.873 170.756 646.744 176.994 647.106 183.45C647.469 189.906 647.65 198.502 647.65 209.238ZM627.52 183.233C627.52 178.372 627.448 174.854 627.303 172.678C627.23 170.429 626.868 167.818 626.215 164.844C625.562 161.797 624.546 159.693 623.168 158.533C621.862 157.372 619.94 156.139 617.401 154.833C614.862 153.527 611.67 152.693 607.826 152.33C603.981 151.968 599.193 151.786 593.463 151.786C583.96 151.786 576.815 152.403 572.027 153.636C567.239 154.869 564.011 156.647 562.343 158.968C560.747 161.289 559.84 164.807 559.623 169.522C559.333 180.404 559.187 188.637 559.187 194.222C559.187 199.01 559.224 202.565 559.296 204.886C559.441 207.135 559.877 209.637 560.602 212.394C561.327 215.15 562.343 217.036 563.649 218.052C565.027 219.068 567.022 220.156 569.633 221.316C572.317 222.404 575.509 223.094 579.209 223.384C582.981 223.674 587.768 223.855 593.572 223.928C605.686 223.928 614.246 222.622 619.251 220.011C624.256 217.327 626.94 212.684 627.303 206.083C627.448 201.078 627.52 193.461 627.52 183.233Z" fill="#605FFC" style="fill:#605FFC;fill:color(display-p3 0.3765 0.3725 0.9882);fill-opacity:1;"/>
<path d="M362.783 95.8756V66.8194C362.783 47.5892 378.372 32 397.603 32H707.495C726.725 32 742.315 47.5892 742.315 66.8194V394.122C742.315 413.352 726.725 428.941 707.495 428.941H397.603C378.372 428.941 362.783 413.352 362.783 394.122V374.191" stroke="#605FFC" style="stroke:#605FFC;stroke:color(display-p3 0.3765 0.3725 0.9882);stroke-opacity:1;" stroke-width="15"/>
<path d="M338.41 390.639L362.784 366.266L387.157 390.639" stroke="#605FFC" style="stroke:#605FFC;stroke:color(display-p3 0.3765 0.3725 0.9882);stroke-opacity:1;" stroke-width="15"/>
</svg>
